<?xml version="1.0" standalone="no"?>
<!DOCTYPE svg PUBLIC "-//W3C//DTD SVG 20010904//EN"
 "http://www.w3.org/TR/2001/REC-SVG-20010904/DTD/svg10.dtd">
<svg version="1.0" xmlns="http://www.w3.org/2000/svg"
 width="12.000000pt" height="12.000000pt" viewBox="0 0 64.000000 64.000000"
 preserveAspectRatio="xMidYMid meet">

<g transform="translate(0.000000,64.000000) scale(0.100000,-0.100000)"
fill="#000000" stroke="none">
<path d="M0 320 l0 -320 320 0 320 0 0 320 0 320 -320 0 -320 0 0 -320z m577
258 c23 -21 23 -24 23 -257 0 -227 -1 -235 -22 -258 -21 -23 -24 -23 -257 -23
-227 0 -235 1 -258 22 -23 21 -23 24 -23 257 0 227 1 235 22 258 21 23 24 23
257 23 227 0 235 -1 258 -22z"/>
<path d="M167 473 c-4 -3 -7 -30 -7 -60 l0 -53 96 0 c73 0 103 -4 125 -17 16
-10 29 -20 29 -23 0 -3 -13 -13 -29 -23 -22 -13 -52 -17 -126 -17 l-96 0 3
-57 3 -58 118 -3 118 -3 79 73 c44 40 80 80 80 88 0 8 -36 48 -79 88 l-80 72
-114 0 c-62 0 -117 -3 -120 -7z"/>
</g>
</svg>
